<svg width="17" height="17" viewBox="0 0 17 17" fill="none" xmlns="http://www.w3.org/2000/svg">
<path d="M16.5424 13.0647C16.5424 13.2762 16.5032 13.5523 16.4249 13.893C16.3465 14.2337 16.2643 14.502 16.1781 14.6978C16.0137 15.0894 15.5359 15.5045 14.7448 15.9432C14.0085 16.3426 13.2801 16.5424 12.5595 16.5424C12.348 16.5424 12.1424 16.5287 11.9427 16.5012C11.743 16.4738 11.5178 16.4249 11.2671 16.3544C11.0165 16.2839 10.8305 16.2271 10.7091 16.184C10.5877 16.1409 10.3703 16.0607 10.057 15.9432C9.7437 15.8257 9.5518 15.7552 9.48131 15.7317C8.71372 15.4575 8.02837 15.1325 7.42526 14.7565C6.4227 14.1378 5.38684 13.2938 4.3177 12.2247C3.24855 11.1555 2.40459 10.1197 1.78582 9.11709C1.40986 8.51399 1.08481 7.82864 0.81067 7.06105C0.787172 6.99056 0.716679 6.79866 0.599191 6.48536C0.481702 6.17205 0.401419 5.9547 0.358339 5.8333C0.31526 5.71189 0.258474 5.52587 0.187981 5.27523C0.117488 5.02458 0.0685349 4.7994 0.0411209 4.59967C0.013707 4.39994 0 4.19433 0 3.98285C0 3.26226 0.19973 2.53383 0.599191 1.79757C1.03781 1.00648 1.45294 0.528696 1.84457 0.364214C2.04038 0.278055 2.30865 0.195814 2.64936 0.117487C2.99008 0.0391617 3.26618 0 3.47765 0C3.58731 0 3.66955 0.0117474 3.72438 0.0352459C3.86537 0.0822411 4.07293 0.379879 4.34707 0.928158C4.43323 1.07698 4.55072 1.28846 4.69953 1.56259C4.84835 1.83673 4.98542 2.08542 5.11074 2.30865C5.23606 2.53187 5.35747 2.74139 5.47496 2.93721C5.49845 2.96854 5.56699 3.06645 5.68056 3.23093C5.79413 3.39541 5.87833 3.53444 5.93316 3.64801C5.98799 3.76158 6.0154 3.8732 6.0154 3.98285C6.0154 4.13951 5.90379 4.33532 5.68056 4.5703C5.45733 4.80527 5.21452 5.02067 4.95213 5.21648C4.68974 5.4123 4.44693 5.61986 4.22371 5.83917C4.00048 6.05848 3.88886 6.23863 3.88886 6.37962C3.88886 6.45011 3.90845 6.53823 3.94761 6.64397C3.98677 6.7497 4.02006 6.82999 4.04747 6.88482C4.07489 6.93964 4.12972 7.03364 4.21196 7.16679C4.2942 7.29994 4.33924 7.37435 4.34707 7.39002C4.94234 8.46308 5.62378 9.3834 6.39137 10.151C7.15896 10.9186 8.07928 11.6 9.15234 12.1953C9.16801 12.2031 9.24242 12.2482 9.37557 12.3304C9.50872 12.4126 9.60271 12.4675 9.65754 12.4949C9.71237 12.5223 9.79265 12.5556 9.89839 12.5947C10.0041 12.6339 10.0922 12.6535 10.1627 12.6535C10.3037 12.6535 10.4839 12.5419 10.7032 12.3187C10.9225 12.0954 11.1301 11.8526 11.3259 11.5902C11.5217 11.3278 11.7371 11.085 11.9721 10.8618C12.207 10.6386 12.4029 10.527 12.5595 10.527C12.6692 10.527 12.7808 10.5544 12.8943 10.6092C13.0079 10.664 13.1469 10.7482 13.3114 10.8618C13.4759 10.9754 13.5738 11.0439 13.6052 11.0674C13.801 11.1849 14.0105 11.3063 14.2337 11.4316C14.4569 11.5569 14.7056 11.694 14.9798 11.8428C15.2539 11.9916 15.4654 12.1091 15.6142 12.1953C16.1625 12.4694 16.4601 12.677 16.5071 12.818C16.5306 12.8728 16.5424 12.955 16.5424 13.0647Z" fill="white"/>
</svg>
